<?xml version="1.0" encoding="utf-8"?>
<!-- Generator: Adobe Illustrator 16.0.0, SVG Export Plug-In . SVG Version: 6.00 Build 0)  -->
<!DOCTYPE svg PUBLIC "-//W3C//DTD SVG 1.1//EN" "http://www.w3.org/Graphics/SVG/1.1/DTD/svg11.dtd">
<svg version="1.1" id="Layer_1" xmlns="http://www.w3.org/2000/svg" xmlns:xlink="http://www.w3.org/1999/xlink" x="0px" y="0px"
	 width="800px" height="587.005px" viewBox="0 0 800 587.005" enable-background="new 0 0 800 587.005" xml:space="preserve">
<rect x="0.979" y="-2.438" fill="#FFFCEA" width="800" height="589.443"/>
<g id="dots">
	<path fill="#E55812" d="M275.047,188.452c0,4.976-4.027,9.018-9.016,9.018c-4.977,0-9.005-4.042-9.005-9.018
		c0-4.974,4.028-9.021,9.005-9.021C271.02,179.431,275.047,183.478,275.047,188.452z"/>
	<path fill="#3F8A4E" d="M145.781,333.132c0,12.491-10.13,22.611-22.621,22.611c-12.472,0-22.608-10.121-22.608-22.611
		c0-12.488,10.136-22.606,22.608-22.606C135.651,310.526,145.781,320.644,145.781,333.132z"/>
	<path fill="#FFB509" d="M287.72,282.432c0,8.583-6.954,15.542-15.527,15.542c-8.584,0-15.525-6.96-15.525-15.542
		c0-8.569,6.941-15.527,15.525-15.527C280.767,266.905,287.72,273.863,287.72,282.432z"/>
	<path fill="#0E4749" d="M582.94,169.685c0,8.569-6.957,15.527-15.527,15.527c-8.581,0-15.522-6.958-15.522-15.527
		c0-8.584,6.941-15.542,15.522-15.542C575.983,154.143,582.94,161.101,582.94,169.685z"/>
	<path fill="#0E4749" d="M204.356,276.017c0,3.546-2.884,6.415-6.431,6.415c-3.55,0-6.413-2.869-6.413-6.415
		c0-3.551,2.863-6.431,6.413-6.431C201.472,269.586,204.356,272.466,204.356,276.017z"/>
	<path fill="#3F8A4E" d="M714.111,411.386c0,3.546-2.865,6.415-6.413,6.415c-3.549,0-6.434-2.869-6.434-6.415
		c0-3.551,2.885-6.432,6.434-6.432C711.246,404.954,714.111,407.835,714.111,411.386z"/>
	<path fill="#E55812" d="M684.313,329.18c0,4.975-4.042,9.005-9.016,9.005s-9.02-4.03-9.02-9.005c0-4.989,4.046-9.016,9.02-9.016
		S684.313,324.191,684.313,329.18z"/>
	<path fill="#FFB509" d="M759.082,347.298c0,8.567-6.96,15.525-15.545,15.525c-8.565,0-15.523-6.958-15.523-15.525
		c0-8.584,6.958-15.526,15.523-15.526C752.122,331.772,759.082,338.714,759.082,347.298z"/>
	<path fill="#E55812" d="M508.114,118.505c0,4.974-4.029,9.017-9.002,9.017c-4.989,0-9.02-4.043-9.02-9.017
		c0-4.974,4.03-9.021,9.02-9.021C504.085,109.484,508.114,113.531,508.114,118.505z"/>
</g>
<path fill="#D5E4EC" d="M262.852,405.436c2.726-1.113,5.269-2.649,7.528-4.557c-1.162,2.679-2.585,5.224-4.292,7.582
	C261.891,407.45,260.403,406.443,262.852,405.436z"/>
<path fill="#59301F" d="M40.106,559.429h89.425c1.701,0,3.066,1.364,3.066,3.054c0,1.703-1.365,3.065-3.066,3.065H40.106
	c-1.707,0-3.07-1.362-3.07-3.065C37.036,560.793,38.399,559.429,40.106,559.429z"/>
<path fill="#59301F" d="M143.97,559.429h12.071c1.705,0,3.07,1.364,3.07,3.054c0,1.703-1.365,3.065-3.07,3.065H143.97
	c-1.702,0-3.068-1.362-3.068-3.065C140.902,560.793,142.268,559.429,143.97,559.429z"/>
<path fill="#59301F" d="M766.876,573.376h12.071c1.702,0,3.066,1.365,3.066,3.066c0,1.69-1.364,3.069-3.066,3.069h-12.071
	c-1.706,0-3.07-1.379-3.07-3.069C763.806,574.741,765.17,573.376,766.876,573.376z"/>
<path fill="#59301F" d="M255.259,569.81c0,2.435-1.968,4.403-4.399,4.403c-2.437,0-4.403-1.969-4.403-4.403
	c0-2.431,1.966-4.413,4.403-4.413C253.292,565.396,255.259,567.379,255.259,569.81z"/>
<path fill="#59301F" d="M265.112,564.653c0,0.881-0.709,1.579-1.579,1.579c-0.868,0-1.583-0.698-1.583-1.579
	c0-0.869,0.715-1.566,1.583-1.566C264.403,563.087,265.112,563.784,265.112,564.653z"/>
<path fill="#59301F" d="M235.985,569.27c0,2.369-1.924,4.292-4.282,4.292c-2.366,0-4.292-1.923-4.292-4.292
	c0-2.371,1.926-4.275,4.292-4.275C234.062,564.994,235.985,566.898,235.985,569.27z"/>
<path fill="#59301F" d="M241.019,564.574c0,0.683-0.572,1.241-1.254,1.241c-0.699,0-1.259-0.559-1.259-1.241
	c0-0.699,0.56-1.255,1.259-1.255C240.447,563.319,241.019,563.875,241.019,564.574z"/>
<path fill="#59301F" d="M244.585,571.27c0,1.034-0.837,1.872-1.877,1.872c-1.039,0-1.875-0.838-1.875-1.872
	c0-1.039,0.836-1.876,1.875-1.876C243.748,569.394,244.585,570.23,244.585,571.27z"/>
<path fill="#59301F" d="M264.249,573.58c0,1.268-1.022,2.291-2.297,2.291c-1.253,0-2.293-1.023-2.293-2.291
	c0-1.26,1.04-2.282,2.293-2.282C263.226,571.298,264.249,572.32,264.249,573.58z"/>
<path fill="#59301F" d="M258,564.03c0,0.76-0.618,1.366-1.359,1.366c-0.762,0-1.381-0.606-1.381-1.366c0-0.758,0.62-1.36,1.381-1.36
	C257.382,562.67,258,563.272,258,564.03z"/>
<path fill="#FFFFFF" d="M287.629,401.654c0,3.873-3.145,7.019-7.017,7.019c-3.875,0-7.021-3.146-7.021-7.019
	c0-3.875,3.146-7.021,7.021-7.021C284.484,394.633,287.629,397.779,287.629,401.654z"/>
<path fill="#FFFFFF" d="M272.193,408.134c0,1.36-1.113,2.479-2.479,2.479c-1.359,0-2.463-1.119-2.463-2.479
	c0-1.366,1.104-2.464,2.463-2.464C271.08,405.67,272.193,406.768,272.193,408.134z"/>
<path fill="#FFFFFF" d="M277.989,412.548c0,0.636-0.511,1.146-1.162,1.146c-0.636,0-1.163-0.511-1.163-1.146
	c0-0.65,0.527-1.162,1.163-1.162C277.478,411.386,277.989,411.897,277.989,412.548z"/>
<path fill="#FFB509" d="M149.285,545.828c0,4.878-0.496,10.113-3.625,13.866c-4.137,4.987-11.389,5.593-17.851,5.951l-56.853,2.074
	c-10.167,0.729-20.361,0.341-30.433-1.162c-10.147-1.563-19.478-6.464-26.515-13.917c-4.277-5.204-7.327-11.31-8.925-17.851
	c-2.335-8.366-2.816-17.152-1.393-25.735c5.113-29.07,35.254-49.896,64.26-42.814c12.492,2.975,22.995,10.567,34.369,16.223
	c12.192,5.951,24.93,1.953,36.383,7.283l5.438,2.528C147.984,509.859,149.717,527.833,149.285,545.828z"/>
<path fill="none" stroke="#FFD88C" stroke-width="0.75" stroke-linecap="round" stroke-linejoin="round" d="M7.517,499.926
	c9.594-23.364,35.702-38.678,61.236-32.322"/>
<g>
	<defs>
		<rect id="SVGID_1_" x="582.012" y="436.659" width="87.272" height="126.939"/>
	</defs>
	<clipPath id="SVGID_2_">
		<use xlink:href="#SVGID_1_"  overflow="visible"/>
	</clipPath>
	<g clip-path="url(#SVGID_2_)">
		<defs>
			<polygon id="SVGID_3_" points="582.104,439.618 668.772,439.618 654.317,560.824 596.579,560.824 			"/>
		</defs>
		<use xlink:href="#SVGID_3_"  overflow="visible" fill="#3F8A4E"/>
		<clipPath id="SVGID_4_">
			<use xlink:href="#SVGID_3_"  overflow="visible"/>
		</clipPath>
		<g clip-path="url(#SVGID_4_)">
			<defs>
				<rect id="SVGID_5_" x="2.853" y="0.306" width="793.369" height="583.126"/>
			</defs>
			<clipPath id="SVGID_6_">
				<use xlink:href="#SVGID_5_"  overflow="visible"/>
			</clipPath>
			<g clip-path="url(#SVGID_6_)">
				<defs>
					<rect id="SVGID_7_" x="567.227" y="424.743" width="116.423" height="150.957"/>
				</defs>
				<clipPath id="SVGID_8_">
					<use xlink:href="#SVGID_7_"  overflow="visible"/>
				</clipPath>
				<g clip-path="url(#SVGID_8_)">
					<defs>
						<rect id="SVGID_9_" x="2.853" y="0.306" width="793.369" height="583.126"/>
					</defs>
					<clipPath id="SVGID_10_">
						<use xlink:href="#SVGID_9_"  overflow="visible"/>
					</clipPath>
					<g clip-path="url(#SVGID_10_)">
						<defs>
							<rect id="SVGID_11_" x="566.797" y="424.138" width="117.103" height="152.804"/>
						</defs>
						<clipPath id="SVGID_12_">
							<use xlink:href="#SVGID_11_"  overflow="visible"/>
						</clipPath>
						<g clip-path="url(#SVGID_12_)">
							<defs>
								<rect id="SVGID_13_" x="566.791" y="424.143" width="117.1" height="152.803"/>
							</defs>
							<clipPath id="SVGID_14_">
								<use xlink:href="#SVGID_13_"  overflow="visible"/>
							</clipPath>
							<g clip-path="url(#SVGID_14_)">
								
									<image overflow="visible" width="82" height="107" xlink:href="85F902DE.jpg"  transform="matrix(1.4281 0 0 1.4281 566.791 424.1426)">
								</image>
							</g>
						</g>
					</g>
				</g>
			</g>
		</g>
	</g>
</g>
<path fill="#DAA09D" d="M587.728,415.6h75.45c2.464,0,4.463,1.998,4.463,4.461v9.794h-84.375v-9.794
	C583.266,417.598,585.265,415.6,587.728,415.6z"/>
<path fill="#FFB509" d="M158.753,455.267c-1.673-1.131-30.172-18.453-56.528-17.324c0,0,16.749,34.077,14.52,58.341"/>
<path fill="#CC9A40" d="M142.684,470.733l-5.534,5.408l-20.405,20.037c1.552-16.909-6.105-38.679-10.894-50.147
	c-1.844-4.506-3.3-7.48-3.593-8.089C111.926,439.325,132.335,445.273,142.684,470.733z"/>
<path fill="#273D51" d="M511.602,406.893c-0.942,0.447-1.952,0.804-2.976,1.036l-0.561,0.157
	c-20.081,4.893-104.315,9.575-120.321,9.64h-0.481c-12.639,0-67.914-2.976-100.439-6.65l-3.267-0.201
	c-4.432-0.544-8.356-1.07-11.576-1.643c-1.813-0.294-3.413-0.62-4.729-0.917l-0.836-0.229c-2.976-0.807-4.369-1.584-3.423-2.389
	c0.266-0.188,0.542-0.341,0.837-0.447c2.203-0.885,4.259-2.063,6.169-3.487c1.348-0.991,2.617-2.106,3.779-3.333
	c0.091-0.059,0.188-0.155,0.262-0.262c0.854-0.884,1.643-1.828,2.373-2.82c0.124-0.106,0.219-0.249,0.277-0.389
	c4.325-6.477,7.347-13.714,8.925-21.337c1.691-6.568,2.975-13.324,5.381-19.69c1.487-4.496,3.657-8.743,6.397-12.583
	c0.822-1.147,1.738-2.251,2.714-3.273c0.523-0.556,1.099-1.132,1.686-1.703c4.122-3.812,8.755-7.064,13.746-9.638
	c1.811-0.945,3.657-1.845,5.534-2.65c9.666-4.015,19.801-6.771,30.168-8.212c2.976-0.405,5.687-0.789,8.54-1.146
	c8.926-1.086,18.236-1.738,27.484-1.908h0.481c12.055,0.204,24.099,1.195,36.027,2.975c12.429,1.626,24.499,5.333,35.7,10.942
	c1.226,0.65,2.422,1.348,3.6,2.063c1.797,1.035,3.513,2.181,5.156,3.438c1.722,1.271,3.364,2.634,4.931,4.075
	c5.456,5.361,9.406,12.022,11.48,19.369c1.737,5.235,2.976,10.753,4.324,16.128c1.551,8.185,4.696,15.979,9.249,22.938
	c0.808,1.129,1.69,2.181,2.65,3.188c1.255,1.333,2.636,2.56,4.106,3.658c0.96,0.684,1.95,1.316,2.976,1.909
	c1.007,0.569,2.049,1.083,3.113,1.516l0.544,0.234C512.608,405.852,512.545,406.379,511.602,406.893z"/>
<path fill="#213346" d="M508.439,407.899c-13.079,2.51-26.313,4.2-39.621,5.022c6.896-35.702-1.999-67.704-9.314-86.279
	c4.912,2.57,9.47,5.78,13.543,9.528c19.062,17.851,11.097,49.831,31.798,65.267c1.888,1.424,3.968,2.601,6.169,3.486
	C513.291,406.021,512.145,406.972,508.439,407.899z"/>
<path fill="#213346" d="M266.664,407.639c13.096,2.506,26.345,4.179,39.653,5.016c-6.894-35.701,1.999-67.713,9.314-86.279
	c-4.916,2.576-9.455,5.78-13.543,9.534c-19.062,17.851-11.095,49.832-31.798,65.265c-1.893,1.521-3.967,2.774-6.185,3.75
	C261.69,405.73,262.976,406.673,266.664,407.639z"/>
<path fill="#213346" d="M316.373,380.286c0,2.324-1.876,4.202-4.197,4.202c-2.309,0-4.186-1.877-4.186-4.202
	c0-2.309,1.877-4.186,4.186-4.186C314.497,376.101,316.373,377.978,316.373,380.286z"/>
<path fill="#213346" d="M316.079,372.262c0,1.034-0.836,1.871-1.876,1.871c-1.034,0-1.871-0.837-1.871-1.871
	c0-1.041,0.836-1.877,1.871-1.877C315.242,370.385,316.079,371.221,316.079,372.262z"/>
<path fill="#213346" d="M321.938,379.571c0,0.932-0.746,1.673-1.673,1.673c-0.916,0-1.658-0.742-1.658-1.673
	c0-0.912,0.742-1.658,1.658-1.658C321.192,377.913,321.938,378.66,321.938,379.571z"/>
<path fill="#213346" d="M325.175,372.106c0,1.659-1.348,3.002-3.006,3.002c-1.659,0-3.009-1.344-3.009-3.002
	c0-1.657,1.35-3.007,3.009-3.007C323.827,369.099,325.175,370.449,325.175,372.106z"/>
<path fill="#213346" d="M322.093,387.974c0,1.625-1.333,2.942-2.949,2.942c-1.625,0-2.959-1.316-2.959-2.942
	c0-1.631,1.335-2.948,2.959-2.948C320.761,385.026,322.093,386.343,322.093,387.974z"/>
<path fill="#FFB509" d="M219.622,492.104l-42.429-30.651c3.828-5.887,8.631-11.08,14.192-15.356
	c7.006-5.534,14.891-9.869,23.321-12.816c4.527-1.579,9.16-2.805,13.868-3.653C228.574,429.626,217.388,475.352,219.622,492.104z"/>
<path fill="#CC9A40" d="M228.546,429.563c0,0-23.801,14.875-24.994,32.726l12.966,28.915l2.096-0.837
	C218.614,490.366,226.889,434.675,228.546,429.563z"/>
<path fill="#CC9A40" d="M76.671,563.022c-0.016-13.868,10.866-25.3,24.717-25.998l91.873-4.714c16.95,0,30.694,13.762,30.694,30.712
	H76.671z"/>
<path fill="#D5E4EC" d="M508.114,408.289c-1.364-2.017-2.57-4.139-3.595-6.34c1.89,1.423,3.966,2.587,6.153,3.486
	C512.966,406.379,511.804,407.34,508.114,408.289z"/>
<path fill="#FDC6A2" d="M406.464,311.825c0.575,2.096,0.064,4.325-1.381,5.95c-4.243,4.975-10.301,8.058-16.827,8.542h-0.213
	c-6.525-0.484-12.582-3.55-16.833-8.542c-1.437-1.625-1.949-3.854-1.373-5.95c3.982-15.819,2.493-48.839,2.493-48.839l15.713-5.3
	h0.213l15.695,5.3C403.951,262.986,402.465,296.006,406.464,311.825z"/>
<path fill="#DAE5F2" d="M516.609,414.979v144.093H257.583V414.979c0-7.779,4.447-14.859,11.453-18.235
	c2.399-1.194,5.034-1.876,7.715-1.999c0.358-0.032,0.727-0.032,1.1,0h218.363c0.617-0.048,1.242-0.048,1.843,0
	c2.555,0.213,5.033,0.928,7.299,2.121C512.236,400.275,516.591,407.298,516.609,414.979z"/>
<path fill="#C4D7E9" d="M516.609,499.617v67.266H257.553v-55.212C311.941,527.492,412.861,544.756,516.609,499.617z"/>
<path fill="#723F28" d="M14.136,559.507h768.649c5.766,0,10.414,4.651,10.414,10.398c0,5.765-4.648,10.397-10.414,10.397H14.136
	c-5.78,0-10.413-4.633-10.413-10.397C3.723,564.158,8.355,559.507,14.136,559.507z"/>
<path fill="#59301F" d="M413.607,573.376h89.426c1.704,0,3.066,1.365,3.066,3.066c0,1.69-1.362,3.069-3.066,3.069h-89.426
	c-1.703,0-3.07-1.379-3.07-3.069C410.537,574.741,411.904,573.376,413.607,573.376z"/>
<path fill="#59301F" d="M517.46,573.376h12.082c1.691,0,3.071,1.365,3.071,3.066c0,1.69-1.38,3.069-3.071,3.069H517.46
	c-1.69,0-3.07-1.379-3.07-3.069C514.39,574.741,515.77,573.376,517.46,573.376z"/>
<path fill="#C4D7E9" d="M467.843,509.826c0,2.543-2.078,4.619-4.617,4.619c-2.542,0-4.616-2.076-4.616-4.619
	c0-2.539,2.074-4.617,4.616-4.617C465.765,505.209,467.843,507.287,467.843,509.826z"/>
<path fill="#C4D7E9" d="M447.449,509.826c0,4.233-3.423,7.672-7.667,7.672c-4.232,0-7.673-3.438-7.673-7.672
	c0-4.244,3.44-7.667,7.673-7.667C444.026,502.159,447.449,505.582,447.449,509.826z"/>
<path fill="#C4D7E9" d="M457.788,498.407c0,1.306-1.071,2.372-2.388,2.372c-1.319,0-2.374-1.066-2.374-2.372
	c0-1.317,1.055-2.386,2.374-2.386C456.717,496.021,457.788,497.09,457.788,498.407z"/>
<path fill="#C4D7E9" d="M460.697,520.304c0,3.146-2.559,5.699-5.714,5.699c-3.146,0-5.705-2.554-5.705-5.699
	c0-3.16,2.56-5.717,5.705-5.717C458.139,514.587,460.697,517.144,460.697,520.304z"/>
<path fill="#C4D7E9" d="M476.77,506.078c0,1.553-1.26,2.79-2.805,2.79c-1.536,0-2.79-1.237-2.79-2.79
	c0-1.552,1.254-2.789,2.79-2.789C475.51,503.289,476.77,504.526,476.77,506.078z"/>
<path fill="#C4D7E9" d="M484.592,491.684c0,3.623-2.943,6.567-6.587,6.567c-3.623,0-6.568-2.944-6.568-6.567
	c0-3.642,2.945-6.586,6.568-6.586C481.648,485.098,484.592,488.042,484.592,491.684z"/>
<path fill="#FFFFFF" d="M333.093,400.646h-52.513v-5.95h58.462C339.043,397.982,336.378,400.646,333.093,400.646z"/>
<path fill="#FFFFFF" d="M356.538,400.646h-4.757c-3.285,0-5.95-2.664-5.95-5.95h16.658
	C362.488,397.982,359.821,400.646,356.538,400.646z"/>
<path fill="#FFB509" d="M220.16,498.455c0,27.271-23.133,49.366-51.644,49.366c-28.53,0-51.665-22.095-51.665-49.366
	c0-27.257,23.135-49.354,51.665-49.354C197.027,449.102,220.16,471.198,220.16,498.455z"/>
<path fill="#3F8A4E" d="M220.193,499.03c0,27.255-23.15,49.352-51.676,49.352c-28.546,0-51.665-22.097-51.665-49.352
	c0-1.132,0-2.235,0-3.334c2.032,25.674,24.314,46.085,51.665,46.085c27.331,0,49.739-20.411,51.521-46.085
	C220.038,496.795,220.193,497.898,220.193,499.03z"/>
<line fill="none" stroke="#BE8116" stroke-width="0.75" stroke-linecap="round" stroke-linejoin="round" x1="135.277" y1="504.11" x2="99.514" y2="495.73"/>
<line fill="none" stroke="#BE8116" stroke-width="0.75" stroke-linecap="round" stroke-linejoin="round" x1="135.277" y1="516.4" x2="96.539" y2="527.771"/>
<line fill="none" stroke="#BE8116" stroke-width="0.75" stroke-linecap="round" stroke-linejoin="round" x1="135.277" y1="510.281" x2="111.056" y2="510.281"/>
<line fill="none" stroke="#BE8116" stroke-width="0.75" stroke-linecap="round" stroke-linejoin="round" x1="198.312" y1="504.11" x2="234.077" y2="495.73"/>
<line fill="none" stroke="#BE8116" stroke-width="0.75" stroke-linecap="round" stroke-linejoin="round" x1="198.312" y1="516.4" x2="237.052" y2="527.771"/>
<line fill="none" stroke="#BE8116" stroke-width="0.75" stroke-linecap="round" stroke-linejoin="round" x1="198.312" y1="510.281" x2="222.533" y2="510.281"/>
<path fill="#FFFFFF" d="M151.193,468.655h0.027c7.842,0,14.167,6.307,14.167,14.165v6.181c0,7.843-6.325,14.167-14.167,14.167
	h-0.027c-7.842,0-14.165-6.324-14.165-14.167v-6.181C137.028,474.962,143.351,468.655,151.193,468.655z"/>
<path fill="#FFFFFF" d="M186.369,469.091h0.015c7.961,0,14.38,6.415,14.38,14.38v6.275c0,7.967-6.419,14.364-14.38,14.364h-0.015
	c-7.967,0-14.38-6.397-14.38-14.364v-6.275C171.988,475.506,178.402,469.091,186.369,469.091z"/>
<path fill="#213346" d="M166.901,503.104c-1.098,0.016-1.995,0.9-2.025,1.999c0,0.496,0.186,0.96,0.511,1.332
	c1.578,2.93,5.795,2.93,7.374,0c0.715-0.836,0.618-2.093-0.203-2.819c-0.357-0.294-0.789-0.48-1.254-0.512H166.901z"/>
<path fill="#FFFFFF" d="M163.325,454.199c0,1.563-1.271,2.854-2.854,2.854c-1.579,0-2.847-1.291-2.847-2.854
	c0-1.582,1.269-2.868,2.847-2.868C162.054,451.331,163.325,452.617,163.325,454.199z"/>
<path fill="#FFFFFF" d="M167.819,452.046c0,0.853-0.683,1.553-1.535,1.553c-0.87,0-1.547-0.7-1.547-1.553s0.678-1.552,1.547-1.552
	C167.136,450.494,167.819,451.193,167.819,452.046z"/>
<path fill="#F3CDC8" d="M670.26,430.773l-0.853,5.204h-87.921l-0.87-5.204c-0.26-1.632,0.991-3.131,2.649-3.146h84.345
	C669.299,427.609,670.569,429.13,670.26,430.773z"/>
<rect x="574.76" y="421.769" fill="#E4B4B0" width="101.375" height="14.209"/>
<polygon fill="#ECC0BD" points="669.407,435.978 668.772,439.618 582.104,439.618 581.486,435.978 "/>
<path fill="#ECC0BD" d="M591.808,440.594c0,1.456-1.179,2.648-2.651,2.648c-1.454,0-2.632-1.192-2.632-2.648
	c0-1.455,1.178-2.651,2.632-2.651C590.629,437.942,591.808,439.139,591.808,440.594z"/>
<path fill="#ECC0BD" d="M594.611,442.562c0,0.543-0.452,0.976-0.991,0.976c-0.544,0-0.976-0.433-0.976-0.976
	c0-0.538,0.432-0.994,0.976-0.994C594.159,441.567,594.611,442.023,594.611,442.562z"/>
<path fill="#ECC0BD" d="M596.579,455.377c0,0.542-0.448,0.993-0.991,0.993c-0.544,0-0.977-0.451-0.977-0.993
	s0.433-0.974,0.977-0.974C596.131,454.403,596.579,454.835,596.579,455.377z"/>
<path fill="#ECC0BD" d="M601.01,451.487c0,0.372-0.31,0.681-0.698,0.681c-0.369,0-0.683-0.309-0.683-0.681
	c0-0.384,0.313-0.683,0.683-0.683C600.7,450.805,601.01,451.104,601.01,451.487z"/>
<rect x="583.237" y="420.217" fill="#213346" width="84.361" height="1.552"/>
<path fill="#213346" d="M592.938,419.922c0,0.854-0.682,1.552-1.553,1.552c-0.851,0-1.529-0.698-1.529-1.552
	c0-0.852,0.679-1.546,1.529-1.546C592.256,418.376,592.938,419.07,592.938,419.922z"/>
<path fill="#213346" d="M597.972,418.109c0,0.619-0.508,1.131-1.133,1.131c-0.617,0-1.129-0.512-1.129-1.131
	c0-0.633,0.512-1.131,1.129-1.131C597.464,416.979,597.972,417.477,597.972,418.109z"/>
<path fill="#213346" d="M594.223,417.57c0,0.463-0.373,0.833-0.837,0.833s-0.835-0.37-0.835-0.833c0-0.469,0.371-0.837,0.835-0.837
	S594.223,417.102,594.223,417.57z"/>
<path fill="#FFFFFF" d="M203.44,445.956c0,0.529-0.432,0.945-0.959,0.945c-0.529,0-0.945-0.416-0.945-0.945
	c0-0.525,0.416-0.959,0.945-0.959C203.008,444.997,203.44,445.431,203.44,445.956z"/>
<path fill="#FFD88C" d="M37.424,481.798c0,3.717-3.006,6.722-6.723,6.722c-3.721,0-6.727-3.005-6.727-6.722
	c0-3.706,3.006-6.724,6.727-6.724C34.417,475.074,37.424,478.092,37.424,481.798z"/>
<path fill="#FFD88C" d="M44.414,472.605c0,1.599-1.29,2.886-2.883,2.886c-1.595,0-2.884-1.287-2.884-2.886
	c0-1.596,1.29-2.88,2.884-2.88C43.124,469.726,44.414,471.01,44.414,472.605z"/>
<path fill="#FFD88C" d="M44.44,484.895c0,1.335-1.066,2.406-2.399,2.406c-1.332,0-2.416-1.071-2.416-2.406
	c0-1.334,1.083-2.415,2.416-2.415C43.374,482.479,44.44,483.561,44.44,484.895z"/>
<path fill="#FFD88C" d="M57.631,468.825c0,1.21-0.979,2.17-2.169,2.17c-1.21,0-2.186-0.96-2.186-2.17
	c0-1.189,0.976-2.168,2.186-2.168C56.652,466.657,57.631,467.636,57.631,468.825z"/>
<path fill="#FFD88C" d="M52.561,475.938c0,1.444-1.163,2.619-2.617,2.619c-1.441,0-2.619-1.175-2.619-2.619
	c0-1.44,1.178-2.62,2.619-2.62C51.398,473.318,52.561,474.498,52.561,475.938z"/>
<path fill="#FFD88C" d="M61.349,475.195c0,1.719-1.409,3.132-3.13,3.132c-1.722,0-3.115-1.413-3.115-3.132
	c0-1.72,1.393-3.129,3.115-3.129C59.94,472.066,61.349,473.476,61.349,475.195z"/>
<path fill="#FFFFFF" d="M418.302,481.115c0,17.915-14.521,32.433-32.429,32.433c-17.916,0-32.434-14.518-32.434-32.433
	c0-17.914,14.519-32.434,32.434-32.434C403.781,448.682,418.302,463.201,418.302,481.115z"/>
<circle fill="#F9CDB7" cx="312.5" cy="191.695" r="20.912"/>
<path fill="#E2A78D" d="M328.78,178.931c-8.279-5.391-19.205-4.249-26.191,2.738c-6.985,6.984-8.127,17.91-2.736,26.189
	c-5.291-3.436-8.749-9.077-9.405-15.351c-0.66-6.275,1.549-12.512,6.009-16.974c4.462-4.459,10.699-6.669,16.97-6.008
	C319.701,170.183,325.343,173.64,328.78,178.931z"/>
<path fill="#213346" d="M312.5,172.34c-7.54-0.002-14.337,4.538-17.223,11.502c-2.886,6.965-1.292,14.985,4.038,20.314
	c5.334,5.333,13.348,6.927,20.314,4.041c6.966-2.887,11.504-9.684,11.504-17.225c-0.006-10.29-8.342-18.635-18.634-18.648V172.34z
	 M312.5,214.156c-9.379,0.002-17.834-5.644-21.425-14.309c-3.588-8.663-1.607-18.633,5.025-25.265
	c6.629-6.633,16.603-8.615,25.266-5.03c8.662,3.589,14.315,12.044,14.315,21.421C335.651,203.764,325.291,214.126,312.5,214.156z"/>
<circle fill="#F9CDB7" cx="463.784" cy="191.695" r="20.912"/>
<path fill="#213346" d="M463.789,172.34c-7.538-0.002-14.339,4.538-17.223,11.502c-2.887,6.965-1.293,14.985,4.038,20.314
	c5.329,5.333,13.35,6.927,20.313,4.041c6.965-2.887,11.505-9.684,11.505-17.225c-0.008-10.29-8.344-18.635-18.633-18.648V172.34z
	 M463.789,214.156c-9.379,0.002-17.833-5.644-21.425-14.309c-3.588-8.663-1.606-18.633,5.021-25.265
	c6.634-6.633,16.604-8.615,25.269-5.03c8.663,3.589,14.315,12.044,14.315,21.421C486.939,203.764,476.579,214.126,463.789,214.156z"
	/>
<path fill="#F9CDB7" d="M386.078,83.315h1.409c40.756,0,73.794,33.04,73.794,73.795v47.985c0.01,19.76-7.836,38.714-21.802,52.692
	c-13.97,13.977-32.918,21.832-52.679,21.837c-41.147,0-74.501-33.357-74.501-74.503v-47.985c0-40.757,33.039-73.798,73.794-73.798
	L386.078,83.315z"/>
<path fill="#E2A78D" d="M396.245,278.123c-3.393,0.474-6.818,0.71-10.247,0.712c-40.984,0-74.502-33.523-74.502-74.503v-48.995
	c0-40.055,32.766-72.827,72.818-72.827h3.359c2.87-0.002,5.738,0.166,8.587,0.506c-32.564,3.879-60.768,33.544-65.946,66.611
	c-1.594,10.543-3.844,20.979-6.734,31.244l-6.743,23.461C316.838,241.837,360.065,273.093,396.245,278.123z"/>
<path fill="#213346" d="M385.285,85.588c-39.456,0.111-71.411,32.066-71.523,71.522v48.011c-0.042,29.22,17.55,55.581,44.549,66.755
	c26.998,11.176,58.075,4.962,78.697-15.739c13.599-13.491,21.238-31.861,21.215-51.016V157.11
	c-0.109-39.456-32.069-71.411-71.523-71.522H385.285z M385.998,281.897c-42.353-0.121-76.657-34.423-76.775-76.776V157.11
	c0.109-41.963,34.098-75.955,76.062-76.068h1.411c41.966,0.108,75.963,34.1,76.072,76.068v48.011
	c-0.125,42.35-34.425,76.65-76.775,76.776H385.998z"/>
<path fill="#BFE1EE" d="M453.694,192.66v0.095C453.419,192.771,453.528,192.705,453.694,192.66z"/>
<path fill="#213346" d="M475.413,192.836c-0.724,0-1.345-0.51-1.487-1.219c-2.049-10.25-12.392-8.528-12.83-8.448
	c-0.845,0.181-1.668-0.377-1.813-1.229c-0.146-0.849,0.452-1.649,1.307-1.754c4.729-0.845,14.23,0.332,16.332,10.839
	c0.163,0.82-0.368,1.617-1.189,1.783C475.629,192.828,475.521,192.838,475.413,192.836z"/>
<path fill="#213346" d="M300.06,194.175c-0.063,0.006-0.126,0.006-0.187,0c-0.832-0.102-1.42-0.857-1.318-1.687
	c0.883-7.189,3.934-10.738,6.338-12.451c1.564-1.162,3.419-1.87,5.358-2.045c2.021-0.08,2.142,2.95,0.122,3.03
	c-0.328,0-7.424,0.547-8.813,11.834C301.462,193.609,300.82,194.172,300.06,194.175z"/>
<path fill="#723F28" d="M458.898,216.931c10.684,19.498,7.284,38.499,7.657,56.633l-5.783-6.4
	c-2.171,11.306-7.421,21.795-15.178,30.306c-1.695-3.102-4.107-5.757-7.032-7.742c-2.136,9.544-7.203,18.184-14.489,24.708
	c2.078-5.03,1.882-10.715-0.536-15.592c-2.598,8.048-8.502,14.612-16.229,18.042c2.445-3.436,2.947-7.892,1.327-11.788
	c-5.89,9.997-22.819,10.3-29.06,0.505c-0.434,1.975-0.115,4.572,1.899,4.738c-8.483,1.307-16.253-2.268-22.093-8.561
	c0.358,3.571,2.049,6.875,4.733,9.252c-9.221-0.584-17.436-6.03-21.562-14.298c-10.952,0.68-21.888-6.825-25.189-17.282
	c0.464,1.793-0.056,3.702-1.365,5.012c-18.916-9.602-17.906-52.663-5.514-66.866c0,0,26.078,4.183,41.924,16.193
	c4.306,3.275,4.432-1.331,10.606-3.898c8.323-3.45,23.168-5.875,31.604-5.91c12.329-0.055,18.92,15.582,26.819,8.163
	C442.362,212.52,458.716,216.603,458.898,216.931z"/>
<path fill="#723F28" d="M467.29,271.325l-5.783-6.414c-2.17,11.301-7.411,21.79-15.154,30.307c-1.699-3.105-4.109-5.759-7.03-7.75
	c-2.136,9.547-7.203,18.186-14.492,24.709c2.071-5.037,1.867-10.722-0.559-15.597c-2.592,8.058-8.496,14.633-16.231,18.068
	c2.445-3.436,2.947-7.89,1.329-11.785c-5.891,9.996-22.821,10.299-29.059,0.504c-0.439,1.976,0.055,9.25,2.075,9.42
	c-8.486,1.306-16.432-6.95-22.269-13.243c0.336,3.536,1.216,9.895,3.878,12.239c-9.042-0.46-16.778-9.153-20.708-17.305
	c-10.95,0.682-21.886-6.819-25.19-17.278c0.465,1.794-0.053,3.702-1.362,5.016c-6.538-3.314-10.85-10.533-13.18-19.139
	c8.366,6.096,18.211,10.268,27.943,14.036c6.605,2.525,13.298,4.967,20.265,6.235c6.758,1.225,13.665,1.347,20.533,1.468
	c19.057,0.329,38.893,0.505,56.137-7.688c4.938-2.35,10.146-6.363,9.977-11.833c-0.199-6.253-7.037-9.821-12.872-12.059
	c12.428-1.842,22.619-11.481,28.285-22.688c2.12-4.258,3.794-8.726,4.996-13.331l1.674,1.304
	C465.596,236.428,466.915,253.181,467.29,271.325z"/>
<path fill="#213346" d="M418.81,321.385l3.896-9.263c1.069-2.564,1.47-5.361,1.165-8.124c-3.384,6.01-8.617,10.77-14.922,13.569
	l-7.687,3.356l4.939-6.776c1.099-1.553,1.731-3.389,1.813-5.289c-3.355,2.965-7.934,4.691-13,4.783
	c-3.903,0.116-7.755-0.881-11.113-2.875c0.545,2.773,0.581,5.237-1.57,6.229l-0.95,0.44l-0.95-0.44
	c-6.966-3.212-12.43-6.526-17.018-10.359c0.778,3.18,1.657,4.322,2.107,4.717l4.906,4.309l-6.522-0.334
	c-9.662-0.505-17.678-9.547-21.971-17.679h-0.026c-9.384,0-18.43-5.269-23.327-13.199l-0.231,0.243l-1.166,1.136l-1.454-0.738
	c-7.219-3.667-12.423-11.969-14.638-23.406c-3.249-16.733,0.443-36.998,8.414-46.133c1.999-2.133,5.266,0.716,3.424,2.987
	c-7.146,8.197-10.388,26.77-7.378,42.281c1.741,8.96,5.393,15.659,10.379,19.121c0.094-0.428,0.084-0.871-0.03-1.294l4.364-1.263
	c2.977,9.415,13.022,16.311,22.88,15.692l1.515-0.095l0.663,1.378c3.948,8.187,9.378,13.159,14.183,15.269
	c-0.865-2.935-1.421-5.955-1.652-9.01l-0.641-6.688l4.571,4.925c4.546,4.893,10.047,8.855,17.594,12.628
	c-0.179-0.83-0.395-1.707-0.553-2.333c-0.655-2.612-1.01-4.151-0.736-5.402l1.175-5.371l2.959,4.635
	c2.452,3.838,7.072,6.106,12.373,6.106h0.331c5.456-0.1,10.102-2.525,12.483-6.566l2.278-3.867l1.768,4.12
	c0.999,2.362,1.349,4.949,1.011,7.493c4.542-3.409,7.911-8.148,9.645-13.56l1.682-5.333l2.527,4.996
	c1.453,2.913,2.211,6.125,2.211,9.379c4.173-5.267,7.098-11.409,8.562-17.966l0.724-3.272l2.773,1.884
	c2.332,1.583,4.375,3.556,6.032,5.832c6.393-7.782,10.745-17.032,12.671-26.915l0.854-4.491l5.291,5.854
	c1.089-18.986-1.704-34.489-8.675-48.445c-0.737-1.137-0.321-2.663,0.891-3.268c1.212-0.607,2.681-0.023,3.151,1.248
	c7.994,16.013,10.771,33.841,8.74,56.143l-0.469,5.173l-6.328-7.006c-2.655,10.073-7.713,19.352-14.743,27.039l-2.152,2.354
	l-1.515-2.799c-0.984-1.802-2.239-3.441-3.723-4.858c-2.616,8.647-7.559,16.408-14.291,22.433L418.81,321.385z"/>
<path fill="#F9CDB7" d="M369.161,268.364c-2.825-0.004-5.114-2.296-5.121-5.121V243.67c0.011-2.826,2.296-5.114,5.121-5.122h35.823
	c2.823,0.011,5.109,2.299,5.117,5.122v19.573c-0.006,2.825-2.292,5.115-5.117,5.121"/>
<path fill="#E2A78D" d="M410.97,245.801v6.062c-0.813-1.868-2.655-3.078-4.691-3.082H370.44c-2.823,0.006-5.115,2.292-5.123,5.118
	v13.506c-0.276-0.638-0.422-1.326-0.424-2.02v-19.584c0.008-2.823,2.295-5.109,5.116-5.117h35.864
	C408.689,240.706,410.962,242.986,410.97,245.801z"/>
<path fill="#213346" d="M386.865,237.954c3.697,0,7.309,0,10.794,0.056l5.133,0.06h2.272l0.451,0.029
	c1.183,0.134,2.319,0.55,3.312,1.212c1.911,1.273,3.125,3.36,3.282,5.653v1.313l-0.028,1.115c0,0.732-0.043,1.46-0.065,2.173
	c-0.093,2.85-0.192,5.503-0.31,7.924c-0.118,2.421-0.243,4.616-0.376,6.543c0,0.242-0.032,0.505-0.054,0.71c0,0.115,0,0.228,0,0.344
	s-0.024,0.277-0.04,0.408c-0.063,0.537-0.192,1.06-0.389,1.563c-0.345,0.855-0.881,1.621-1.564,2.236
	c-0.898,0.83-2.061,1.308-3.279,1.355c-0.306,0.007-0.611-0.039-0.9-0.137c-0.196-0.076-0.291-0.157-0.291-0.247
	c0-0.092,0.095-0.177,0.264-0.273l0.71-0.342c0.813-0.392,1.518-0.977,2.051-1.703c0.34-0.489,0.579-1.039,0.702-1.623
	c0.062-0.318,0.081-0.645,0.065-0.968v-0.269c0-0.116,0-0.229-0.023-0.344c0-0.232-0.036-0.469-0.052-0.71
	c-0.137-1.927-0.264-4.117-0.373-6.543c-0.11-2.423-0.224-5.074-0.315-7.924c0-0.713-0.045-1.44-0.063-2.173l-0.031-1.115v-0.944
	c-0.115-0.871-0.619-1.641-1.374-2.091c-0.377-0.223-0.796-0.357-1.23-0.389h-2.261l-5.13,0.059
	c-3.486,0.034-7.098,0.051-10.794,0.051c-3.699,0-7.31,0-10.796-0.051l-5.136-0.059h-2.253c-0.434,0.031-0.856,0.166-1.232,0.389
	c-0.752,0.45-1.26,1.22-1.374,2.091v0.944l-0.03,1.115c0,0.732-0.045,1.46-0.066,2.173c-0.089,2.85-0.198,5.503-0.313,7.924
	c-0.117,2.421-0.237,4.616-0.374,6.543c0,0.242-0.035,0.505-0.05,0.71c0,0.115,0,0.228,0,0.344v0.269
	c-0.016,0.323,0.006,0.649,0.065,0.968c0.121,0.584,0.36,1.137,0.703,1.623c0.531,0.729,1.236,1.313,2.05,1.703l0.707,0.342
	c0.17,0.097,0.263,0.186,0.263,0.273c0,0.084-0.093,0.171-0.287,0.247c-0.289,0.098-0.595,0.144-0.9,0.137
	c-1.22-0.043-2.387-0.525-3.283-1.355c-0.685-0.618-1.218-1.38-1.561-2.236c-0.197-0.502-0.328-1.026-0.389-1.563
	c0-0.131-0.037-0.297-0.042-0.408l-0.03-0.344c0-0.232-0.032-0.469-0.049-0.71c-0.13-1.927-0.258-4.117-0.374-6.543
	c-0.118-2.423-0.218-5.074-0.31-7.924c0-0.713-0.044-1.44-0.066-2.173c0-0.368-0.023-0.742-0.034-1.115v-1.313
	c0.257-3.58,3.031-6.466,6.598-6.866l0.447-0.029h2.269l5.137-0.06C379.558,237.987,383.169,237.954,386.865,237.954z"/>
<path fill="#213346" d="M316.833,227.436c-0.115,1.589-0.032,3.186,0.248,4.754c0.311,1.621,0.819,3.197,1.516,4.693
	c-1.136-1.284-2.11-2.703-2.893-4.23c-0.787-1.585-1.374-3.267-1.748-4.998c-0.38-1.778-0.55-3.594-0.505-5.411
	c0.021-0.926,0.092-1.85,0.211-2.768c0.118-0.972,0.319-1.931,0.592-2.868l5.259,2.302c-0.389,0.589-0.729,1.213-1.011,1.86
	c-0.305,0.691-0.576,1.399-0.807,2.12C317.233,224.368,316.943,225.891,316.833,227.436z"/>
<path fill="#213346" d="M324.672,231.756c0.41,3.738,2.071,7.469,4.475,10.711c-3.255-2.651-5.756-6.11-7.249-10.036
	c-0.756-2.097-1.151-4.307-1.167-6.535c-0.018-2.36,0.435-4.699,1.329-6.882l5.051,2.717
	C325.178,224.316,324.272,228.052,324.672,231.756z"/>
<path fill="#213346" d="M338.976,234.568c0.413,3.628,1.59,7.127,3.457,10.265c-2.73-2.712-4.856-5.972-6.237-9.563
	c-1.475-3.773-2.131-7.816-1.925-11.86l5.656,0.971C338.886,227.67,338.563,231.143,338.976,234.568z"/>
<path fill="#213346" d="M432.089,232.519c0.188,1.476,0.137,2.975-0.158,4.433c-0.252,1.129-0.637,1.784-1.01,1.76
	c-0.722-0.077-1.012-2.723-1.424-5.885c-0.414-3.162-0.687-5.813,0-6.062c0.331-0.107,0.864,0.445,1.374,1.474
	C431.508,229.59,431.921,231.035,432.089,232.519z"/>
<path fill="#213346" d="M443.465,229.527c-0.033,2.103-0.442,4.182-1.203,6.143c-0.613,1.516-1.258,2.291-1.585,2.176
	c-0.692-0.263,0.125-3.904,0.21-8.39s-0.479-8.163,0.229-8.385c0.327-0.097,0.934,0.732,1.467,2.258
	C443.239,225.329,443.538,227.425,443.465,229.527z"/>
<path fill="#213346" d="M455.45,227.673c0.22,1.544,0.303,3.101,0.253,4.659c-0.043,1.268-0.189,2.533-0.445,3.778
	c-0.45,2.115-1.069,3.327-1.4,3.256c-0.74-0.155-0.044-5.237-0.964-11.323c-0.921-6.088-2.88-10.819-2.201-11.169
	c0.301-0.155,1.218,0.85,2.227,2.76c0.581,1.126,1.073,2.294,1.47,3.498C454.867,224.616,455.22,226.134,455.45,227.673z"/>
<path fill="#213346" d="M321.264,279.351c-0.198-1.446-0.243-2.909-0.132-4.363c0.054-0.632,0.142-1.261,0.262-1.884
	c0.104-0.542,0.235-1.079,0.401-1.608c0.599-1.934,1.352-2.97,1.665-2.856c0.313,0.11,0.237,1.328,0.127,3.185
	c0,0.471-0.061,0.976-0.065,1.516c-0.006,0.542,0,1.121,0,1.723c0.027,1.31,0.13,2.62,0.307,3.92
	c0.199,1.294,0.468,2.58,0.799,3.849c0.171,0.581,0.318,1.141,0.506,1.652c0.187,0.51,0.331,1.01,0.505,1.439
	c0.625,1.751,1.081,2.878,0.771,3.096c-0.308,0.216-1.281-0.587-2.401-2.278c-0.314-0.458-0.595-0.934-0.851-1.426
	c-0.292-0.563-0.553-1.145-0.784-1.736C321.857,282.213,321.484,280.795,321.264,279.351z"/>
<path fill="#213346" d="M337.46,286.346c-0.317-2.331-0.328-4.696-0.028-7.032c0.237-1.771,0.592-2.846,0.944-2.843
	c0.353,0.005,0.648,1.107,0.879,2.843c0.232,1.74,0.405,4.122,0.764,6.669c0.186,1.268,0.412,2.454,0.657,3.536
	c0.145,0.504,0.253,1.039,0.402,1.515c0.063,0.234,0.129,0.463,0.197,0.681l0.207,0.621c0.506,1.587,0.956,2.607,0.65,2.833
	c-0.302,0.229-1.241-0.463-2.281-2.021l-0.395-0.622c-0.126-0.215-0.241-0.455-0.368-0.702c-0.26-0.52-0.492-1.057-0.692-1.604
	C337.963,288.961,337.65,287.665,337.46,286.346z"/>
<path fill="#213346" d="M356.78,289.727c-2.129-7.577-2.417-13.967-1.73-14.054c0.686-0.087,2.136,5.985,4.217,13.361
	c2.081,7.374,4.006,13.314,3.332,13.602C361.929,302.926,358.889,297.298,356.78,289.727z"/>
<path fill="#213346" d="M413.802,295.862c0.956-3.187,1.628-6.182,2.224-8.342c0.597-2.163,1.097-3.507,1.453-3.452
	c0.359,0.056,0.479,1.471,0.348,3.744c-0.183,2.983-0.704,5.938-1.554,8.802c-0.487,1.6-1.108,3.154-1.852,4.649
	c-0.34,0.652-0.71,1.286-1.113,1.898c-0.187,0.287-0.368,0.571-0.555,0.83l-0.571,0.72c-1.516,1.823-2.757,2.597-2.997,2.371
	c-0.235-0.229,0.479-1.45,1.476-3.375c0.127-0.237,0.254-0.505,0.391-0.752l0.395-0.833c0.282-0.565,0.506-1.208,0.817-1.852
	C412.786,298.94,413.317,297.453,413.802,295.862z"/>
<path fill="#213346" d="M428.851,290.113c0.677-3.877,1.01-7.522,1.514-10.152c0.507-2.625,0.916-4.227,1.269-4.195
	c0.354,0.028,0.542,1.69,0.546,4.353c0.037,3.499-0.227,6.995-0.781,10.449c-0.338,1.941-0.857,3.846-1.558,5.688
	c-0.579,1.516-1.326,2.962-2.23,4.309c-1.587,2.294-3.03,3.263-3.288,3.03c-0.258-0.231,0.641-1.617,1.701-3.941
	c0.613-1.359,1.137-2.759,1.57-4.185C428.121,293.712,428.541,291.924,428.851,290.113z"/>
<path fill="#213346" d="M444.074,280.417c0.753-3.141,1.273-6.061,1.757-8.197c0.484-2.137,0.924-3.441,1.285-3.399
	c0.357,0.04,0.545,1.402,0.506,3.609c-0.044,2.894-0.4,5.771-1.067,8.586c-0.379,1.574-0.887,3.113-1.515,4.605
	c-0.317,0.68-0.604,1.328-0.944,1.901c-0.169,0.294-0.319,0.576-0.506,0.839l-0.506,0.742c-1.309,1.866-2.459,2.723-2.715,2.525
	c-0.26-0.194,0.308-1.449,1.118-3.394l0.369-0.746c0.1-0.269,0.208-0.545,0.313-0.84c0.236-0.565,0.429-1.202,0.664-1.852
	C443.267,283.447,443.691,281.981,444.074,280.417z"/>
<path fill="#213346" d="M449.23,275.667c0.813-2.02,1.481-3.933,2.021-5.721c0.252-0.9,0.506-1.748,0.714-2.563
	c0.209-0.813,0.393-1.565,0.554-2.257c0.637-2.777,0.976-4.545,1.354-4.545c0.381,0,0.643,1.838,0.45,4.809
	c-0.052,0.737-0.123,1.549-0.262,2.415c-0.143,0.863-0.308,1.784-0.506,2.747c-0.966,4.175-2.62,8.162-4.895,11.791
	c-0.539,0.821-1.045,1.611-1.583,2.302c-0.533,0.693-1.033,1.335-1.515,1.89c-1.966,2.232-3.48,3.31-3.723,3.075
	c-0.242-0.231,0.741-1.747,2.257-4.162c0.379-0.605,0.795-1.262,1.208-1.989c0.416-0.728,0.854-1.515,1.314-2.315
	C447.495,279.499,448.423,277.654,449.23,275.667z"/>
<path fill="#FFFFFF" d="M307.691,236.746c0.379-1.845,1.378-3.133,2.055-2.92c0.679,0.213,0.818,1.732,0.471,3.439
	c-0.35,1.707-1.081,3.031-1.794,2.975C307.712,240.186,307.313,238.585,307.691,236.746z"/>
<path fill="#FFFFFF" d="M308.327,256.676c-0.67-2.446-0.991-4.975-0.95-7.51c0.066-1.945,0.4-3.131,0.742-3.131
	c0.743,0,1.224,4.585,2.704,9.971c1.479,5.381,3.347,9.596,2.711,9.959c-0.297,0.171-1.191-0.676-2.231-2.323
	C309.978,261.478,308.975,259.132,308.327,256.676z"/>
<path fill="#213346" d="M352.731,236.214h-0.246c-2.598-0.09-4.639-1.641-6.275-2.882l-0.102-0.077
	c-10.104-7.639-21.892-12.749-34.376-14.896c-2.907-0.565-2.167-4.91,0.763-4.479c13.207,2.27,25.677,7.673,36.368,15.753
	l0.095,0.076c1.249,0.944,2.525,1.921,3.692,1.965c1.166,0.044,2.455-0.813,3.829-1.718l0.39-0.253
	c7.752-5.075,17.81-7.878,28.346-7.878c10.521,0,20.594,2.789,28.351,7.86l0.389,0.252c1.369,0.903,2.68,1.758,3.828,1.715
	c1.152-0.039,2.447-1.01,3.69-1.965l0.098-0.074c10.691-8.082,23.162-13.485,36.368-15.755c1.254-0.243,2.46,0.592,2.676,1.85
	c0.212,1.258-0.648,2.447-1.912,2.63c-12.484,2.15-24.272,7.256-34.377,14.896l-0.104,0.077c-1.634,1.241-3.673,2.793-6.271,2.883
	c-2.597,0.093-4.765-1.323-6.493-2.459l-0.373-0.248c-14.506-9.476-37.23-9.476-51.737,0l-0.373,0.248
	C357.302,234.853,355.231,236.214,352.731,236.214z"/>
<path fill="#213346" d="M385.482,212.814c-1.257,0.002-2.274-1.019-2.272-2.273v-23.534c0-3.03,4.546-3.03,4.546,0v23.534
	C387.756,211.796,386.737,212.814,385.482,212.814z"/>
<path fill="#E2A78D" d="M379.257,150.7c0.85,3.749,0.553,8.75-2.08,11.774c-3.07,3.537-7.903,2.81-12.081,2.631
	c-5.1-0.224-10.205,0.3-15.153,1.552c-4.041,1.034-7.648,3.537-11.754,4.222c-4.495,0.783-5.556-1.617-2.557-4.909
	c3.535-3.87,8.586-7.992,13.362-10.228c8.868-4.172,20.16-6.208,30.104-5.214"/>
<path fill="#E2A78D" d="M392.482,152.357c-0.85,3.749-0.544,8.75,2.087,11.775c3.065,3.536,7.905,2.807,12.083,2.63
	c5.099-0.224,10.203,0.298,15.153,1.552c4.04,1.034,7.644,3.509,11.751,4.222c4.502,0.782,5.556-1.612,2.557-4.912
	c-3.507-3.867-8.586-7.984-13.357-10.228c-8.873-4.173-20.155-6.207-30.107-5.207"/>
<path fill="#723F28" d="M392.958,146.843c-0.848,3.74-0.55,8.742,2.082,11.767c3.065,3.536,7.904,2.813,12.082,2.636
	c5.1-0.227,10.205,0.297,15.153,1.551c4.04,1.035,7.653,3.505,11.752,4.223c4.502,0.784,5.558-1.615,2.561-4.914
	c-3.508-3.87-8.587-7.987-13.358-10.228c-8.873-4.173-20.158-6.204-30.104-5.209"/>
<path fill="#213346" d="M409.425,158.923c4.527-0.008,9.037,0.552,13.425,1.673c1.928,0.545,3.81,1.249,5.622,2.099
	c2.021,0.895,3.969,1.739,5.956,2.084c0.464,0.086,0.936,0.124,1.408,0.11c-0.256-0.455-0.567-0.876-0.925-1.252
	c-3.657-4.041-8.5-7.755-12.627-9.699c-8.56-3.92-17.953-5.682-27.353-5.136c-0.353,2.899,0.066,6.281,1.834,8.319
	c2.02,2.301,5.342,2.12,8.867,1.927l1.405-0.076C407.828,158.944,408.626,158.923,409.425,158.923z M435.592,169.442
	c-0.65-0.006-1.301-0.066-1.943-0.183c-2.525-0.439-4.802-1.437-6.999-2.399c-1.593-0.752-3.239-1.373-4.931-1.86
	c-4.736-1.205-9.62-1.702-14.501-1.481c-0.444,0-0.899,0.042-1.355,0.065c-4.041,0.224-9.092,0.505-12.54-3.478
	c-3.339-3.841-3.475-9.815-2.58-13.769c0.283-1.01,1.126-1.763,2.164-1.931c10.734-0.934,21.522,0.931,31.315,5.414
	c4.65,2.188,10.043,6.309,14.079,10.759c2.965,3.268,2.403,5.583,1.809,6.667C439.6,168.131,438.408,169.442,435.592,169.442z"/>
<path fill="#723F28" d="M376.855,144.83c0.848,3.749,0.551,8.751-2.083,11.77c-3.07,3.536-7.908,2.813-12.086,2.636
	c-5.1-0.227-10.205,0.295-15.153,1.553c-4.04,1.033-7.646,3.535-11.753,4.222c-4.501,0.781-5.556-1.619-2.554-4.909
	c3.502-3.87,8.587-7.993,13.359-10.229c8.869-4.172,20.155-6.209,30.103-5.214"/>
<path fill="#213346" d="M333.978,162.885c0.472,0.016,0.942-0.018,1.401-0.107c1.988-0.347,3.916-1.192,5.963-2.086
	c1.812-0.851,3.691-1.553,5.616-2.1c5.167-1.313,10.5-1.856,15.825-1.617c0.465,0,0.937,0.044,1.415,0.07
	c3.537,0.193,6.853,0.379,8.861-1.928c1.772-2.021,2.187-5.417,1.833-8.321c-9.4-0.542-18.792,1.22-27.353,5.138
	c-4.138,1.944-8.981,5.661-12.627,9.697c-0.362,0.377-0.675,0.797-0.934,1.25V162.885z M334.214,167.431
	c-2.809,0-4.006-1.31-4.491-2.193c-0.601-1.087-1.164-3.394,1.808-6.667c4.04-4.452,9.425-8.586,14.071-10.755
	c9.795-4.488,20.586-6.355,31.316-5.414c1.039,0.163,1.887,0.915,2.168,1.928c0.894,3.952,0.752,9.926-2.587,13.764
	c-3.465,3.98-8.494,3.704-12.541,3.48l-1.355-0.066c-4.879-0.221-9.765,0.277-14.5,1.482c-1.689,0.489-3.336,1.11-4.925,1.857
	c-2.202,0.966-4.475,1.96-7.004,2.399C335.527,167.366,334.873,167.426,334.214,167.431z"/>
<path fill="#213346" d="M381.91,262.567c-3.253-0.002-6.502-0.274-9.713-0.813c-0.985-0.15-1.656-1.085-1.473-2.069
	c0.18-0.982,1.139-1.621,2.115-1.406c0.153,0.024,15.477,2.752,22.634-2.359c1.845-1.249,3.065-3.228,3.357-5.435
	c0.135-0.979,1.042-1.658,2.018-1.511c0.976,0.15,1.642,1.067,1.479,2.042c-0.437,3.153-2.181,5.979-4.804,7.787
	C393.317,261.804,387.119,262.567,381.91,262.567z"/>
<path fill="#213346" d="M467.859,197.816c-0.7,0-1.308-0.481-1.47-1.16c-0.619-2.287-0.817-4.664-0.585-7.021
	c0.249-2.561,1.42-4.944,3.296-6.704c1.511-1.347,3.532,0.916,2.021,2.263c-1.322,1.276-2.142,2.983-2.309,4.814
	c-0.188,1.997-0.018,4.009,0.506,5.945c0.192,0.813-0.308,1.629-1.12,1.824C468.089,197.803,467.974,197.816,467.859,197.816z"/>
<path fill="#213346" d="M306.313,197.816c-0.118,0.002-0.239-0.011-0.355-0.04c-0.813-0.192-1.319-1.011-1.126-1.824
	c0.523-1.936,0.694-3.948,0.505-5.945c-0.163-1.831-0.98-3.539-2.303-4.814c-1.51-1.347,0.511-3.609,2.021-2.263
	c1.875,1.76,3.047,4.144,3.297,6.704c0.23,2.357,0.03,4.734-0.585,7.021C307.604,197.33,307.005,197.809,306.313,197.816z"/>
<path fill="#FFFFFF" d="M419.285,124.182c1.351,0.549,2.652,1.226,3.878,2.021c0.999,0.649,1.928,1.4,2.778,2.233
	c1.439,1.449,2.021,2.641,1.668,3.03c-0.357,0.389-1.541,0-3.245-0.792l-2.933-1.354c-1.104-0.506-2.305-1.01-3.582-1.515
	c-1.279-0.505-2.526-0.951-3.657-1.353l-3.066-1.01c-1.761-0.609-2.913-1.114-2.894-1.658c0.021-0.548,1.254-1.01,3.293-1.053
	c1.186-0.021,2.369,0.077,3.536,0.295C416.501,123.276,417.917,123.664,419.285,124.182z"/>
<path fill="#FFFFFF" d="M308.288,137.698c0.448-1.123,1.173-2.118,2.11-2.889c0.768-0.585,1.476-0.742,1.91-0.439
	c0.433,0.303,0.538,1.011,0.428,1.86c-0.168,1.026-0.465,2.025-0.888,2.976c-0.384,0.965-0.896,1.875-1.517,2.712
	c-0.533,0.676-1.1,1.083-1.631,0.983c-0.532-0.1-0.905-0.718-1.01-1.673C307.592,140.021,307.796,138.808,308.288,137.698z"/>
<path fill="#FFFFFF" d="M319.325,126.147c1.647-0.766,3.348-0.611,3.801,0.361c0.456,0.967-0.504,2.377-2.165,3.146
	c-1.663,0.768-3.349,0.605-3.804-0.359C316.701,128.331,317.677,126.915,319.325,126.147z"/>
<path fill="#FFFFFF" d="M327.006,117.849c1.197-2.551,2.744-4.456,3.762-4.117c1.021,0.339,1.047,2.97-0.255,5.753
	c-1.305,2.784-3.359,4.449-4.259,3.889C325.354,122.813,325.814,120.398,327.006,117.849z"/>
<path fill="#3F8A4E" d="M318.556,118.859V79.891c0-7.864,3.499-14.972,8.884-18.058l19.549-11.199
	c23.4-13.398,49.852-13.398,73.24,0l19.553,11.199c5.393,3.07,8.889,10.179,8.889,18.058v38.985"/>
<path fill="#0E4749" d="M447.14,79.28v9.795c-24.861-24.42-58.137-37.691-89.751-30.273c-8.679,2.021-17.613,5.979-22.906,14.309
	c-6.604,10.391-5.324,26.555,2.791,35.357c5.875,6.335,13.664,8.295,21.692,9.811h-41.924V79.28c0-7.872,3.496-14.978,8.882-18.063
	l19.551-11.199c23.397-13.396,49.852-13.396,73.24,0l19.547,11.183C443.651,64.303,447.14,71.409,447.14,79.28z"/>
<path fill="#213346" d="M448.576,121.265c-1.258,0-2.273-1.019-2.273-2.273V80.006c0-7.071-3.03-13.396-7.74-16.087L419.01,52.725
	c-11.293-6.469-23.233-9.752-35.492-9.752c-12.26,0-24.201,3.283-35.494,9.752l-19.552,11.193c-4.699,2.692-7.74,9.011-7.74,16.087
	v38.986c0,3.03-4.545,3.03-4.545,0V80.006c0-8.676,3.936-16.542,10.028-20.032l19.545-11.192c23.998-13.747,51.521-13.747,75.512,0
	l19.575,11.192c6.061,3.49,10.001,11.356,10.001,20.032v38.986C450.853,120.246,449.829,121.268,448.576,121.265z"/>
<path fill="#3F8A4E" d="M470.604,123.33c-1.029,4.314-2.354,8.552-3.971,12.682c-0.835,2.218-7.966,21.115-7.102,21.928
	c-17.175-16.13-43.594-26.454-73.24-26.454c-29.649,0-55.996,10.311-73.166,26.411c-6.198-19.294-21.471-48.635-3.319-65.158
	c5.187-4.723,11.796-6.707,18.237-8.335c36.715-9.272,75.069-10.509,111.914-1.957c6.063,1.408,12.123,3.104,17.613,6.436
	c5.491,3.327,10.334,8.473,12.629,15.153C472.381,110.349,472.025,116.939,470.604,123.33z"/>
<path fill="#0E4749" d="M320.572,90.235c3.595-3.273,7.883-5.233,12.319-6.667c-1.378,0.337-2.755,0.674-4.133,1.011
	c-6.441,1.625-13.046,3.612-18.234,8.334c-18.152,16.521-2.878,45.862,3.32,65.159c2.703-2.528,5.569-4.871,8.587-7.011
	C315.651,131.916,303.732,105.563,320.572,90.235z"/>
<path fill="#0E4749" d="M342.139,91.508c-0.673,0.063-0.769-0.947-0.094-1.01c3.156-0.637,6.505-1.208,9.954-1.697
	c0.674-0.095,0.816,0.916,0.142,1.01c-3.431,0.505-6.765,1.055-9.9,1.687C342.207,91.505,342.172,91.51,342.139,91.508z"/>
<path fill="#0E4749" d="M318.201,99.315c-0.171,0-0.332-0.087-0.423-0.231c-0.15-0.234-0.082-0.547,0.152-0.697
	c0.211-0.136,5.369-3.399,18.032-6.527c0.276-0.079,0.563,0.087,0.631,0.366c0.068,0.278-0.108,0.558-0.39,0.616
	c-12.5,3.085-17.679,6.364-17.729,6.396C318.393,99.289,318.298,99.315,318.201,99.315z"/>
<path fill="#0E4749" d="M400.909,87.122h-0.047c-3.448-0.308-6.808-0.505-9.994-0.615c-0.674,0-0.674-1.011,0-1.011
	c3.202,0.104,6.567,0.313,10.048,0.621c0.675,0.032,0.63,1.042-0.043,1.01L400.909,87.122z"/>
<path fill="#0E4749" d="M366.091,88.635c-0.674,0.053-0.755-0.958-0.082-1.011l2.703-0.46c5.204-0.9,10.607-1.829,16.018-1.744
	c0.673,0,0.673,1.01,0,1.01c-5.345-0.078-10.673,0.839-15.829,1.728l-2.715,0.461L366.091,88.635z"/>
<path fill="#0E4749" d="M454.145,97.47c-0.056-0.003-0.112-0.014-0.164-0.032c-3.311-1.187-6.566-2.258-9.633-3.178
	c-0.268-0.079-0.421-0.362-0.339-0.632c0.079-0.268,0.362-0.418,0.63-0.336c3.099,0.924,6.354,2.021,9.681,3.197
	C454.851,96.68,454.71,97.466,454.145,97.47z"/>
<path fill="#0E4749" d="M438.491,92.623c-0.04,0.005-0.077,0.005-0.119,0c-12.459-3.136-18.36-2.631-18.416-2.631
	c-0.673,0.063-0.77-0.946-0.098-1.01c0.244,0,6.108-0.539,18.756,2.647c0.674,0.082,0.551,1.092-0.123,1.01V92.623z"/>
<path fill="#0E4749" d="M342.427,98.007c-0.672,0.064-0.77-0.946-0.096-1.01c3.15-0.636,6.505-1.208,9.956-1.696
	c0.674-0.096,0.813,0.915,0.141,1.01c-3.429,0.505-6.762,1.055-9.899,1.687C342.496,98.005,342.462,98.011,342.427,98.007z"/>
<path fill="#0E4749" d="M318.49,105.821c-0.502,0-0.695-0.655-0.273-0.929c0.212-0.137,5.37-3.398,18.034-6.526
	c0.633-0.129,0.862,0.799,0.241,0.981c-12.472,3.081-17.678,6.363-17.727,6.396C318.682,105.795,318.587,105.821,318.49,105.821z"/>
<path fill="#0E4749" d="M401.195,93.627h-0.045c-3.45-0.307-6.813-0.505-9.996-0.615c-0.279,0-0.505-0.227-0.505-0.505
	c0-0.279,0.226-0.505,0.505-0.505c3.197,0.103,6.567,0.313,10.047,0.621c0.674,0.029,0.633,1.04-0.039,1.01L401.195,93.627z"/>
<path fill="#0E4749" d="M366.378,95.165c-0.566,0.005-0.71-0.787-0.176-0.978c0.234-0.087,5.851-2.103,18.797-2.255
	c0.279,0,0.505,0.226,0.505,0.505c0,0.279-0.226,0.504-0.505,0.504c-12.747,0.153-18.408,2.173-18.463,2.195
	C366.486,95.154,366.433,95.162,366.378,95.165z"/>
<path fill="#0E4749" d="M454.435,103.976c-0.058,0-0.117-0.011-0.171-0.033c-3.306-1.186-6.543-2.257-9.629-3.178
	c-0.648-0.194-0.353-1.165,0.292-0.968c3.098,0.924,6.356,2.021,9.678,3.197C455.139,103.186,455,103.973,454.435,103.976z"/>
<path fill="#0E4749" d="M438.78,99.128c-0.041,0.005-0.079,0.005-0.12,0c-12.489-3.146-18.361-2.625-18.417-2.619
	c-0.279,0.026-0.527-0.177-0.555-0.456c-0.028-0.279,0.176-0.529,0.454-0.555c0.247,0,6.106-0.542,18.761,2.646
	c0.673,0.082,0.552,1.092-0.123,1.01V99.128z"/>
<path fill="#0E4749" d="M341.846,105.349c-0.244,0.004-0.455-0.167-0.504-0.406c-0.056-0.273,0.121-0.54,0.394-0.595
	c3.156-0.631,6.506-1.208,9.956-1.696c0.277-0.043,0.536,0.15,0.575,0.429c0.04,0.276-0.153,0.531-0.429,0.57
	c-3.436,0.505-6.769,1.056-9.905,1.687C341.904,105.346,341.875,105.349,341.846,105.349z"/>
<path fill="#0E4749" d="M317.915,113.162c-0.171,0-0.331-0.087-0.423-0.231c-0.151-0.234-0.085-0.547,0.15-0.698
	c0.213-0.137,5.375-3.398,18.04-6.526c0.27-0.066,0.54,0.098,0.609,0.368c0.066,0.273-0.1,0.547-0.374,0.613
	c-12.495,3.086-17.679,6.363-17.729,6.393C318.106,113.132,318.011,113.162,317.915,113.162z"/>
<path fill="#0E4749" d="M400.62,100.968h-0.044c-3.452-0.313-6.808-0.504-9.992-0.621c-0.279,0-0.506-0.227-0.506-0.506
	c0-0.279,0.227-0.505,0.506-0.505c3.202,0.1,6.566,0.313,10.051,0.621c0.674,0.032,0.63,1.042-0.044,1.01H400.62z"/>
<path fill="#0E4749" d="M365.804,102.504c-0.568,0.005-0.712-0.787-0.177-0.981c0.238-0.084,5.85-2.099,18.801-2.252
	c0.672,0,0.672,1.01,0,1.01c-12.775,0.153-18.403,2.174-18.458,2.191C365.917,102.491,365.86,102.501,365.804,102.504z"/>
<path fill="#0E4749" d="M453.863,111.317c-0.058,0-0.119-0.011-0.171-0.029c-3.304-1.191-6.542-2.262-9.628-3.183
	c-0.269-0.08-0.421-0.363-0.34-0.631c0.082-0.267,0.359-0.417,0.625-0.34c3.102,0.931,6.362,2.021,9.68,3.199
	C454.581,110.515,454.442,111.328,453.863,111.317z"/>
<path fill="#0E4749" d="M438.205,106.468h-0.12c-12.451-3.135-18.359-2.625-18.419-2.62c-0.672,0.063-0.768-0.947-0.095-1.01
	c0.241,0,6.101-0.542,18.759,2.646c0.675,0.084,0.55,1.095-0.125,1.01V106.468z"/>
<path fill="#FFFFFF" d="M357.142,66.726c1.555-0.16,3.127,0.011,4.612,0.505c1.147,0.437,1.778,1.011,1.707,1.515
	c-0.072,0.505-0.81,0.916-1.889,1.195c-1.348,0.308-2.715,0.51-4.093,0.605c-1.374,0.148-2.758,0.184-4.136,0.116
	c-1.111-0.082-1.9-0.329-2.065-0.839c-0.169-0.508,0.353-1.191,1.408-1.813C354.061,67.268,355.582,66.829,357.142,66.726z"/>
<path fill="#FFFFFF" d="M384.862,65.747c7.111,0.439,12.742,1.989,12.627,3.031c-0.116,1.042-5.864,1.252-12.851,0.823
	c-6.985-0.428-12.672-1.328-12.667-2.383C371.976,66.16,377.753,65.318,384.862,65.747z"/>
<path fill="#213346" d="M389.008,79.001c-20.373,0.036-40.665,2.594-60.412,7.609c-6.061,1.515-12.417,3.398-17.259,7.813
	c-14.143,12.88-6.062,35.055,0.466,52.873c0.833,2.284,1.64,4.486,2.372,6.604c18.245-15.73,44.305-24.685,72.13-24.685
	c27.639,0,53.542,8.834,71.725,24.355c0.506-1.642,1.197-3.804,2.11-6.43c1.147-3.314,2.584-7.258,4.266-11.728l0.075-0.198
	c1.587-4.035,2.892-8.176,3.905-12.39c1.553-6.985,1.447-12.901-0.336-18.073c-1.917-5.58-6.063-10.531-11.663-13.94
	c-4.908-2.986-10.324-4.622-16.94-6.156C422.907,80.859,405.981,78.962,389.008,79.001z M312.045,162.014l-1.102-3.42
	c-0.962-3.03-2.161-6.277-3.423-9.742c-6.981-19.093-15.658-42.856,0.742-57.794c5.638-5.106,12.589-7.182,19.223-8.859
	c38.061-9.598,77.131-10.29,112.988-1.963c6.096,1.412,12.532,3.19,18.277,6.727c6.507,3.954,11.336,9.757,13.599,16.34
	c2.063,5.989,2.22,12.714,0.473,20.543c-1.042,4.416-2.393,8.757-4.04,12.985l-0.071,0.203c-5.052,13.424-6.908,19.506-6.957,20.632
	c-0.026-0.521-0.258-1.013-0.647-1.362l-3.111,3.312c-17.5-16.439-43.627-25.855-71.698-25.855c-28.073,0-54.134,9.4-71.62,25.8
	L312.045,162.014z"/>
<path fill="#FFFFFF" d="M449.082,181.416c-0.142-1.765-0.171-3.536-0.088-5.303c0.1-1.4,0.363-2.339,0.889-2.465
	c0.525-0.127,1.198,0.616,1.803,1.976c1.428,3.56,1.684,7.482,0.728,11.196c-0.422,1.427-1.009,2.249-1.515,2.194
	c-0.506-0.055-0.92-0.955-1.202-2.328C449.381,184.944,449.173,183.184,449.082,181.416z"/>
<path fill="#FFFFFF" d="M446.104,166.263c-0.246-0.546-0.373-1.141-0.373-1.741c-0.041-0.545,0.142-1.083,0.506-1.492
	c0.46-0.392,1.113-0.46,1.646-0.171c1.612,0.824,2.417,2.675,1.918,4.419c-0.155,0.585-0.652,1.017-1.252,1.087
	c-0.549-0.01-1.072-0.239-1.451-0.636C446.67,167.313,446.331,166.815,446.104,166.263z"/>
<path fill="#FFFFFF" d="M440.962,158.257c-0.504-0.642-0.226-1.691,0.615-2.349c0.845-0.658,1.932-0.671,2.438-0.031
	c0.504,0.642,0.22,1.7-0.621,2.354C442.549,158.89,441.462,158.899,440.962,158.257z"/>
<path fill="#FFFFFF" d="M419.985,123.33c2.314,0.418,4.53,1.275,6.521,2.525c1.515,1.011,2.227,1.965,1.98,2.426
	c-0.247,0.458-1.388,0.407-3.03,0.1c-1.642-0.309-3.815-0.813-6.219-1.289c-2.406-0.474-4.602-0.813-6.244-1.145
	c-1.642-0.333-2.713-0.692-2.76-1.233c-0.052-0.54,0.966-1.131,2.738-1.515C415.299,122.792,417.679,122.838,419.985,123.33z"/>
<path fill="#FFFFFF" d="M439.146,130.572c0.646,0.257,1.16,0.768,1.422,1.415c0.204,0.508,0.117,1.089-0.226,1.515
	c-0.34,0.388-0.798,0.647-1.304,0.738c-0.951,0.231-1.945-0.176-2.459-1.01c-0.291-0.424-0.426-0.936-0.379-1.45
	c0.06-0.551,0.423-1.023,0.935-1.231C437.779,130.28,438.505,130.29,439.146,130.572z"/>
<path fill="#FFFFFF" d="M450.979,136.688c1.053,0.661,1.947,1.547,2.616,2.596c0.506,0.855,0.603,1.592,0.248,1.992
	c-0.354,0.397-1.077,0.402-1.962,0.142c-2.124-0.749-4.04-1.997-5.591-3.633c-0.601-0.703-0.895-1.363-0.666-1.854
	c0.228-0.49,0.936-0.691,1.92-0.579C448.776,135.536,449.948,135.994,450.979,136.688z"/>
<circle fill="#213346" cx="356.687" cy="190.074" r="11.573"/>
<circle fill="#F9CDB7" cx="361.849" cy="181.472" r="6.415"/>
<circle fill="#213346" cx="410.227" cy="192.599" r="11.573"/>
<path fill="#F9CDB7" d="M421.806,183.996c0,3.545-2.873,6.417-6.417,6.417c-3.54,0-6.414-2.873-6.414-6.417
	c0-3.543,2.874-6.412,6.414-6.412C418.933,177.584,421.806,180.453,421.806,183.996z"/>
<rect x="289.315" y="38.472" fill="none" width="197.652" height="282.914"/>
</svg>
