<svg version="1.1" id="Layer_1" xmlns="http://www.w3.org/2000/svg" xmlns:xlink="http://www.w3.org/1999/xlink" x="0px" y="0px"
	 width="800px" height="587.005px" viewBox="0 0 800 587.005" enable-background="new 0 0 800 587.005" xml:space="preserve">
<g id="dots">
	<path fill="#E55812" d="M275.047,188.452c0,4.976-4.027,9.018-9.016,9.018c-4.977,0-9.005-4.042-9.005-9.018
		c0-4.974,4.028-9.021,9.005-9.021C271.02,179.431,275.047,183.478,275.047,188.452z"/>
	<path fill="#3F8A4E" d="M145.781,333.132c0,12.491-10.13,22.611-22.621,22.611c-12.472,0-22.608-10.121-22.608-22.611
		c0-12.488,10.136-22.606,22.608-22.606C135.651,310.526,145.781,320.644,145.781,333.132z"/>
	<path fill="#FFB509" d="M287.72,282.432c0,8.583-6.954,15.542-15.527,15.542c-8.584,0-15.525-6.96-15.525-15.542
		c0-8.569,6.941-15.527,15.525-15.527C280.767,266.905,287.72,273.863,287.72,282.432z"/>
	<path fill="#0E4749" d="M582.94,169.685c0,8.569-6.957,15.527-15.527,15.527c-8.581,0-15.522-6.958-15.522-15.527
		c0-8.584,6.941-15.542,15.522-15.542C575.983,154.143,582.94,161.101,582.94,169.685z"/>
	<path fill="#0E4749" d="M204.356,276.017c0,3.546-2.884,6.415-6.431,6.415c-3.55,0-6.413-2.869-6.413-6.415
		c0-3.551,2.863-6.431,6.413-6.431C201.472,269.586,204.356,272.466,204.356,276.017z"/>
	<path fill="#3F8A4E" d="M714.111,411.386c0,3.546-2.865,6.415-6.413,6.415c-3.549,0-6.434-2.869-6.434-6.415
		c0-3.551,2.885-6.432,6.434-6.432C711.246,404.954,714.111,407.835,714.111,411.386z"/>
	<path fill="#E55812" d="M684.313,329.18c0,4.975-4.042,9.005-9.016,9.005s-9.02-4.03-9.02-9.005c0-4.989,4.046-9.016,9.02-9.016
		S684.313,324.191,684.313,329.18z"/>
	<path fill="#FFB509" d="M759.082,347.298c0,8.567-6.96,15.525-15.545,15.525c-8.565,0-15.523-6.958-15.523-15.525
		c0-8.584,6.958-15.526,15.523-15.526C752.122,331.772,759.082,338.714,759.082,347.298z"/>
	<path fill="#E55812" d="M508.114,118.505c0,4.974-4.029,9.017-9.002,9.017c-4.989,0-9.02-4.043-9.02-9.017
		c0-4.974,4.03-9.021,9.02-9.021C504.085,109.484,508.114,113.531,508.114,118.505z"/>
</g>
</svg>
